<?xml version="1.0" encoding="UTF-8" standalone="no"?>
<!DOCTYPE svg PUBLIC "-//W3C//DTD SVG 1.1//EN"
 "http://www.w3.org/Graphics/SVG/1.1/DTD/svg11.dtd">
<!-- Generated by graphviz version 2.43.0 (0)
 -->
<!-- Title: structs Pages: 1 -->
<svg width="565pt" height="689pt"
 viewBox="0.00 0.00 565.15 689.00" xmlns="http://www.w3.org/2000/svg" xmlns:xlink="http://www.w3.org/1999/xlink">
<g id="graph0" class="graph" transform="scale(1 1) rotate(0) translate(4 685)">
<title>structs</title>
<polygon fill="white" stroke="transparent" points="-4,4 -4,-685 561.15,-685 561.15,4 -4,4"/>
<!-- 0 -->
<g id="node1" class="node">
<title>0</title>
<path fill="none" stroke="black" d="M12,-600.5C12,-600.5 530,-600.5 530,-600.5 536,-600.5 542,-606.5 542,-612.5 542,-612.5 542,-668.5 542,-668.5 542,-674.5 536,-680.5 530,-680.5 530,-680.5 12,-680.5 12,-680.5 6,-680.5 0,-674.5 0,-668.5 0,-668.5 0,-612.5 0,-612.5 0,-606.5 6,-600.5 12,-600.5"/>
<text text-anchor="start" x="32.61" y="-663.3" font-family="Times,serif" font-size="14.00">Root Hash:</text>
<text text-anchor="start" x="99.7" y="-663.3" font-family="Times,serif" font-size="14.00">4711b3b18e379dbdfabd6440428d20cae5784a518605acec48e126e33383f24e</text>
<text text-anchor="start" x="51.29" y="-645.3" font-family="Times,serif" font-size="14.00">Txn ID:</text>
<text text-anchor="start" x="100" y="-645.3" font-family="Times,serif" font-size="14.00">8e26def59e1a7289e6c322bc49ee4f23f015c17cebafa53c19b6e34561270232</text>
<text text-anchor="start" x="26.36" y="-627.3" font-family="Times,serif" font-size="14.00">Block Time:</text>
<text text-anchor="start" x="100" y="-627.3" font-family="Times,serif" font-size="14.00">Tue Mar 31 15:33:10 AEDT 2020</text>
<text text-anchor="start" x="9.65" y="-609.3" font-family="Times,serif" font-size="14.00">Block Number:</text>
<text text-anchor="start" x="100" y="-609.3" font-family="Times,serif" font-size="14.00">6231667</text>
</g>
<!-- 1 -->
<g id="node2" class="node">
<title>1</title>
<path fill="none" stroke="black" d="M56.9,-527.5C56.9,-527.5 485.1,-527.5 485.1,-527.5 491.1,-527.5 497.1,-533.5 497.1,-539.5 497.1,-539.5 497.1,-551.5 497.1,-551.5 497.1,-557.5 491.1,-563.5 485.1,-563.5 485.1,-563.5 56.9,-563.5 56.9,-563.5 50.9,-563.5 44.9,-557.5 44.9,-551.5 44.9,-551.5 44.9,-539.5 44.9,-539.5 44.9,-533.5 50.9,-527.5 56.9,-527.5"/>
<text text-anchor="middle" x="271" y="-541.3" font-family="Times,serif" font-size="14.00">9aa9f728c533ea7d7671e227e987b45bf49ae31986ad9c7923e987b518a3c1cfg</text>
</g>
<!-- 0&#45;&gt;1 -->
<g id="edge1" class="edge">
<title>0&#45;&gt;1</title>
<path fill="none" stroke="black" d="M271,-600.33C271,-591.49 271,-582.29 271,-574.05"/>
<polygon fill="black" stroke="black" points="274.5,-573.88 271,-563.88 267.5,-573.88 274.5,-573.88"/>
</g>
<!-- 2 -->
<g id="node3" class="node">
<title>2</title>
<path fill="none" stroke="#bcd7fb" d="M60.4,-446.5C60.4,-446.5 481.6,-446.5 481.6,-446.5 487.6,-446.5 493.6,-452.5 493.6,-458.5 493.6,-458.5 493.6,-478.5 493.6,-478.5 493.6,-484.5 487.6,-490.5 481.6,-490.5 481.6,-490.5 60.4,-490.5 60.4,-490.5 54.4,-490.5 48.4,-484.5 48.4,-478.5 48.4,-478.5 48.4,-458.5 48.4,-458.5 48.4,-452.5 54.4,-446.5 60.4,-446.5"/>
<text text-anchor="middle" x="271" y="-475.3" font-family="Times,serif" font-size="14.00">9aa9f728c533ea7d7671e227e987b45bf49ae31986ad9c7923e987b518a3c1cf</text>
<polyline fill="none" stroke="#bcd7fb" points="48.4,-468.5 493.6,-468.5 "/>
<text text-anchor="middle" x="271" y="-453.3" font-family="Times,serif" font-size="14.00"> </text>
</g>
<!-- 1&#45;&gt;2 -->
<g id="edge2" class="edge">
<title>1&#45;&gt;2</title>
<path fill="none" stroke="black" d="M271,-527.48C271,-519.65 271,-510.11 271,-501.04"/>
<polygon fill="black" stroke="black" points="274.5,-500.74 271,-490.74 267.5,-500.74 274.5,-500.74"/>
</g>
<!-- 3 -->
<g id="node4" class="node">
<title>3</title>
<path fill="none" stroke="black" d="M256,-373.5C256,-373.5 286,-373.5 286,-373.5 292,-373.5 298,-379.5 298,-385.5 298,-385.5 298,-397.5 298,-397.5 298,-403.5 292,-409.5 286,-409.5 286,-409.5 256,-409.5 256,-409.5 250,-409.5 244,-403.5 244,-397.5 244,-397.5 244,-385.5 244,-385.5 244,-379.5 250,-373.5 256,-373.5"/>
<text text-anchor="middle" x="271" y="-387.3" font-family="Times,serif" font-size="14.00">6</text>
</g>
<!-- 2&#45;&gt;3 -->
<g id="edge3" class="edge">
<title>2&#45;&gt;3</title>
<path fill="none" stroke="black" d="M271,-446.21C271,-437.96 271,-428.41 271,-419.67"/>
<polygon fill="black" stroke="black" points="274.5,-419.56 271,-409.56 267.5,-419.56 274.5,-419.56"/>
</g>
<!-- 4 -->
<g id="node5" class="node">
<title>4</title>
<path fill="none" stroke="black" d="M89.85,-300.5C89.85,-300.5 452.15,-300.5 452.15,-300.5 458.15,-300.5 464.15,-306.5 464.15,-312.5 464.15,-312.5 464.15,-324.5 464.15,-324.5 464.15,-330.5 458.15,-336.5 452.15,-336.5 452.15,-336.5 89.85,-336.5 89.85,-336.5 83.85,-336.5 77.85,-330.5 77.85,-324.5 77.85,-324.5 77.85,-312.5 77.85,-312.5 77.85,-306.5 83.85,-300.5 89.85,-300.5"/>
<text text-anchor="middle" x="89.35" y="-314.3" font-family="Times,serif" font-size="14.00">0</text>
<polyline fill="none" stroke="black" points="100.85,-300.5 100.85,-336.5 "/>
<text text-anchor="middle" x="112.35" y="-314.3" font-family="Times,serif" font-size="14.00">1</text>
<polyline fill="none" stroke="black" points="123.85,-300.5 123.85,-336.5 "/>
<text text-anchor="middle" x="135.35" y="-314.3" font-family="Times,serif" font-size="14.00">2</text>
<polyline fill="none" stroke="black" points="146.85,-300.5 146.85,-336.5 "/>
<text text-anchor="middle" x="158.35" y="-314.3" font-family="Times,serif" font-size="14.00">3</text>
<polyline fill="none" stroke="black" points="169.85,-300.5 169.85,-336.5 "/>
<text text-anchor="middle" x="181.35" y="-314.3" font-family="Times,serif" font-size="14.00">4</text>
<polyline fill="none" stroke="black" points="192.85,-300.5 192.85,-336.5 "/>
<text text-anchor="middle" x="204.35" y="-314.3" font-family="Times,serif" font-size="14.00">5</text>
<polyline fill="none" stroke="black" points="215.85,-300.5 215.85,-336.5 "/>
<text text-anchor="middle" x="227.35" y="-314.3" font-family="Times,serif" font-size="14.00">6</text>
<polyline fill="none" stroke="black" points="238.85,-300.5 238.85,-336.5 "/>
<text text-anchor="middle" x="250.35" y="-314.3" font-family="Times,serif" font-size="14.00">7</text>
<polyline fill="none" stroke="black" points="261.85,-300.5 261.85,-336.5 "/>
<text text-anchor="middle" x="273.35" y="-314.3" font-family="Times,serif" font-size="14.00">8</text>
<polyline fill="none" stroke="black" points="284.85,-300.5 284.85,-336.5 "/>
<text text-anchor="middle" x="296.35" y="-314.3" font-family="Times,serif" font-size="14.00">9</text>
<polyline fill="none" stroke="black" points="307.85,-300.5 307.85,-336.5 "/>
<text text-anchor="middle" x="318.96" y="-314.3" font-family="Times,serif" font-size="14.00">a</text>
<polyline fill="none" stroke="black" points="330.06,-300.5 330.06,-336.5 "/>
<text text-anchor="middle" x="341.56" y="-314.3" font-family="Times,serif" font-size="14.00">b</text>
<polyline fill="none" stroke="black" points="353.06,-300.5 353.06,-336.5 "/>
<text text-anchor="middle" x="364.17" y="-314.3" font-family="Times,serif" font-size="14.00">c</text>
<polyline fill="none" stroke="black" points="375.28,-300.5 375.28,-336.5 "/>
<text text-anchor="middle" x="386.78" y="-314.3" font-family="Times,serif" font-size="14.00">d</text>
<polyline fill="none" stroke="black" points="398.28,-300.5 398.28,-336.5 "/>
<text text-anchor="middle" x="409.38" y="-314.3" font-family="Times,serif" font-size="14.00">e</text>
<polyline fill="none" stroke="black" points="420.49,-300.5 420.49,-336.5 "/>
<text text-anchor="middle" x="430.82" y="-314.3" font-family="Times,serif" font-size="14.00">f</text>
<polyline fill="none" stroke="black" points="441.15,-300.5 441.15,-336.5 "/>
<text text-anchor="middle" x="452.65" y="-314.3" font-family="Times,serif" font-size="14.00">g</text>
</g>
<!-- 3&#45;&gt;4 -->
<g id="edge4" class="edge">
<title>3&#45;&gt;4</title>
<path fill="none" stroke="black" d="M271,-373.31C271,-365.29 271,-355.55 271,-346.57"/>
<polygon fill="black" stroke="black" points="274.5,-346.53 271,-336.53 267.5,-346.53 274.5,-346.53"/>
</g>
<!-- 5 -->
<g id="node6" class="node">
<title>5</title>
<path fill="none" stroke="black" d="M296.07,-227.5C296.07,-227.5 431.93,-227.5 431.93,-227.5 437.93,-227.5 443.93,-233.5 443.93,-239.5 443.93,-239.5 443.93,-251.5 443.93,-251.5 443.93,-257.5 437.93,-263.5 431.93,-263.5 431.93,-263.5 296.07,-263.5 296.07,-263.5 290.07,-263.5 284.07,-257.5 284.07,-251.5 284.07,-251.5 284.07,-239.5 284.07,-239.5 284.07,-233.5 290.07,-227.5 296.07,-227.5"/>
<text text-anchor="middle" x="364" y="-241.3" font-family="Times,serif" font-size="14.00">6976696e675f726f6f6d2f</text>
</g>
<!-- 4&#45;&gt;5 -->
<g id="edge5" class="edge">
<title>4:c&#45;&gt;5</title>
<path fill="none" stroke="black" d="M364,-300C364,-291.51 364,-282.26 364,-273.88"/>
<polygon fill="black" stroke="black" points="367.5,-273.85 364,-263.85 360.5,-273.85 367.5,-273.85"/>
</g>
<!-- 6 -->
<g id="node7" class="node">
<title>6</title>
<path fill="none" stroke="black" d="M182.85,-154.5C182.85,-154.5 545.15,-154.5 545.15,-154.5 551.15,-154.5 557.15,-160.5 557.15,-166.5 557.15,-166.5 557.15,-178.5 557.15,-178.5 557.15,-184.5 551.15,-190.5 545.15,-190.5 545.15,-190.5 182.85,-190.5 182.85,-190.5 176.85,-190.5 170.85,-184.5 170.85,-178.5 170.85,-178.5 170.85,-166.5 170.85,-166.5 170.85,-160.5 176.85,-154.5 182.85,-154.5"/>
<text text-anchor="middle" x="182.35" y="-168.3" font-family="Times,serif" font-size="14.00">0</text>
<polyline fill="none" stroke="black" points="193.85,-154.5 193.85,-190.5 "/>
<text text-anchor="middle" x="205.35" y="-168.3" font-family="Times,serif" font-size="14.00">1</text>
<polyline fill="none" stroke="black" points="216.85,-154.5 216.85,-190.5 "/>
<text text-anchor="middle" x="228.35" y="-168.3" font-family="Times,serif" font-size="14.00">2</text>
<polyline fill="none" stroke="black" points="239.85,-154.5 239.85,-190.5 "/>
<text text-anchor="middle" x="251.35" y="-168.3" font-family="Times,serif" font-size="14.00">3</text>
<polyline fill="none" stroke="black" points="262.85,-154.5 262.85,-190.5 "/>
<text text-anchor="middle" x="274.35" y="-168.3" font-family="Times,serif" font-size="14.00">4</text>
<polyline fill="none" stroke="black" points="285.85,-154.5 285.85,-190.5 "/>
<text text-anchor="middle" x="297.35" y="-168.3" font-family="Times,serif" font-size="14.00">5</text>
<polyline fill="none" stroke="black" points="308.85,-154.5 308.85,-190.5 "/>
<text text-anchor="middle" x="320.35" y="-168.3" font-family="Times,serif" font-size="14.00">6</text>
<polyline fill="none" stroke="black" points="331.85,-154.5 331.85,-190.5 "/>
<text text-anchor="middle" x="343.35" y="-168.3" font-family="Times,serif" font-size="14.00">7</text>
<polyline fill="none" stroke="black" points="354.85,-154.5 354.85,-190.5 "/>
<text text-anchor="middle" x="366.35" y="-168.3" font-family="Times,serif" font-size="14.00">8</text>
<polyline fill="none" stroke="black" points="377.85,-154.5 377.85,-190.5 "/>
<text text-anchor="middle" x="389.35" y="-168.3" font-family="Times,serif" font-size="14.00">9</text>
<polyline fill="none" stroke="black" points="400.85,-154.5 400.85,-190.5 "/>
<text text-anchor="middle" x="411.96" y="-168.3" font-family="Times,serif" font-size="14.00">a</text>
<polyline fill="none" stroke="black" points="423.06,-154.5 423.06,-190.5 "/>
<text text-anchor="middle" x="434.56" y="-168.3" font-family="Times,serif" font-size="14.00">b</text>
<polyline fill="none" stroke="black" points="446.06,-154.5 446.06,-190.5 "/>
<text text-anchor="middle" x="457.17" y="-168.3" font-family="Times,serif" font-size="14.00">c</text>
<polyline fill="none" stroke="black" points="468.28,-154.5 468.28,-190.5 "/>
<text text-anchor="middle" x="479.78" y="-168.3" font-family="Times,serif" font-size="14.00">d</text>
<polyline fill="none" stroke="black" points="491.28,-154.5 491.28,-190.5 "/>
<text text-anchor="middle" x="502.38" y="-168.3" font-family="Times,serif" font-size="14.00">e</text>
<polyline fill="none" stroke="black" points="513.49,-154.5 513.49,-190.5 "/>
<text text-anchor="middle" x="523.82" y="-168.3" font-family="Times,serif" font-size="14.00">f</text>
<polyline fill="none" stroke="black" points="534.15,-154.5 534.15,-190.5 "/>
<text text-anchor="middle" x="545.65" y="-168.3" font-family="Times,serif" font-size="14.00">g</text>
</g>
<!-- 5&#45;&gt;6 -->
<g id="edge6" class="edge">
<title>5&#45;&gt;6</title>
<path fill="none" stroke="black" d="M364,-227.31C364,-219.29 364,-209.55 364,-200.57"/>
<polygon fill="black" stroke="black" points="367.5,-200.53 364,-190.53 360.5,-200.53 367.5,-200.53"/>
</g>
<!-- 7 -->
<g id="node8" class="node">
<title>7</title>
<path fill="none" stroke="black" d="M258.17,-81.5C258.17,-81.5 289.83,-81.5 289.83,-81.5 295.83,-81.5 301.83,-87.5 301.83,-93.5 301.83,-93.5 301.83,-105.5 301.83,-105.5 301.83,-111.5 295.83,-117.5 289.83,-117.5 289.83,-117.5 258.17,-117.5 258.17,-117.5 252.17,-117.5 246.17,-111.5 246.17,-105.5 246.17,-105.5 246.17,-93.5 246.17,-93.5 246.17,-87.5 252.17,-81.5 258.17,-81.5"/>
<text text-anchor="middle" x="274" y="-95.3" font-family="Times,serif" font-size="14.00">36f32g</text>
</g>
<!-- 6&#45;&gt;7 -->
<g id="edge7" class="edge">
<title>6:4&#45;&gt;7</title>
<path fill="none" stroke="black" d="M274,-154C274,-145.51 274,-136.26 274,-127.88"/>
<polygon fill="black" stroke="black" points="277.5,-127.85 274,-117.85 270.5,-127.85 277.5,-127.85"/>
</g>
<!-- 8 -->
<g id="node9" class="node">
<title>8</title>
<path fill="none" stroke="#227bf4" d="M229.78,-0.5C229.78,-0.5 318.22,-0.5 318.22,-0.5 324.22,-0.5 330.22,-6.5 330.22,-12.5 330.22,-12.5 330.22,-32.5 330.22,-32.5 330.22,-38.5 324.22,-44.5 318.22,-44.5 318.22,-44.5 229.78,-44.5 229.78,-44.5 223.78,-44.5 217.78,-38.5 217.78,-32.5 217.78,-32.5 217.78,-12.5 217.78,-12.5 217.78,-6.5 223.78,-0.5 229.78,-0.5"/>
<text text-anchor="middle" x="274" y="-29.3" font-family="Times,serif" font-size="14.00">living_room/Co2</text>
<polyline fill="none" stroke="#227bf4" points="217.78,-22.5 330.22,-22.5 "/>
<text text-anchor="middle" x="274" y="-7.3" font-family="Times,serif" font-size="14.00">564ppm</text>
</g>
<!-- 7&#45;&gt;8 -->
<g id="edge8" class="edge">
<title>7&#45;&gt;8</title>
<path fill="none" stroke="black" d="M274,-81.48C274,-73.65 274,-64.11 274,-55.04"/>
<polygon fill="black" stroke="black" points="277.5,-54.74 274,-44.74 270.5,-54.74 277.5,-54.74"/>
</g>
</g>
</svg>
