<?xml version="1.0" encoding="UTF-8" standalone="no"?>
<!DOCTYPE svg PUBLIC "-//W3C//DTD SVG 1.1//EN"
 "http://www.w3.org/Graphics/SVG/1.1/DTD/svg11.dtd">
<!-- Generated by graphviz version 2.43.0 (0)
 -->
<!-- Title: structs Pages: 1 -->
<svg width="798pt" height="689pt"
 viewBox="0.00 0.00 798.30 689.00" xmlns="http://www.w3.org/2000/svg" xmlns:xlink="http://www.w3.org/1999/xlink">
<g id="graph0" class="graph" transform="scale(1 1) rotate(0) translate(4 685)">
<title>structs</title>
<polygon fill="white" stroke="transparent" points="-4,4 -4,-685 794.3,-685 794.3,4 -4,4"/>
<!-- 0 -->
<g id="node1" class="node">
<title>0</title>
<path fill="none" stroke="black" d="M201.15,-600.5C201.15,-600.5 719.15,-600.5 719.15,-600.5 725.15,-600.5 731.15,-606.5 731.15,-612.5 731.15,-612.5 731.15,-668.5 731.15,-668.5 731.15,-674.5 725.15,-680.5 719.15,-680.5 719.15,-680.5 201.15,-680.5 201.15,-680.5 195.15,-680.5 189.15,-674.5 189.15,-668.5 189.15,-668.5 189.15,-612.5 189.15,-612.5 189.15,-606.5 195.15,-600.5 201.15,-600.5"/>
<text text-anchor="start" x="221.76" y="-663.3" font-family="Times,serif" font-size="14.00">Root Hash:</text>
<text text-anchor="start" x="288.86" y="-663.3" font-family="Times,serif" font-size="14.00">4711b3b18e379dbdfabd6440428d20cae5784a518605acec48e126e33383f24e</text>
<text text-anchor="start" x="240.44" y="-645.3" font-family="Times,serif" font-size="14.00">Txn ID:</text>
<text text-anchor="start" x="289.15" y="-645.3" font-family="Times,serif" font-size="14.00">8e26def59e1a7289e6c322bc49ee4f23f015c17cebafa53c19b6e34561270232</text>
<text text-anchor="start" x="215.51" y="-627.3" font-family="Times,serif" font-size="14.00">Block Time:</text>
<text text-anchor="start" x="289.15" y="-627.3" font-family="Times,serif" font-size="14.00">Tue Mar 31 15:33:10 AEDT 2020</text>
<text text-anchor="start" x="198.8" y="-609.3" font-family="Times,serif" font-size="14.00">Block Number:</text>
<text text-anchor="start" x="289.15" y="-609.3" font-family="Times,serif" font-size="14.00">6231667</text>
</g>
<!-- 1 -->
<g id="node2" class="node">
<title>1</title>
<path fill="none" stroke="black" d="M246.05,-527.5C246.05,-527.5 674.25,-527.5 674.25,-527.5 680.25,-527.5 686.25,-533.5 686.25,-539.5 686.25,-539.5 686.25,-551.5 686.25,-551.5 686.25,-557.5 680.25,-563.5 674.25,-563.5 674.25,-563.5 246.05,-563.5 246.05,-563.5 240.05,-563.5 234.05,-557.5 234.05,-551.5 234.05,-551.5 234.05,-539.5 234.05,-539.5 234.05,-533.5 240.05,-527.5 246.05,-527.5"/>
<text text-anchor="middle" x="460.15" y="-541.3" font-family="Times,serif" font-size="14.00">9aa9f728c533ea7d7671e227e987b45bf49ae31986ad9c7923e987b518a3c1cfg</text>
</g>
<!-- 0&#45;&gt;1 -->
<g id="edge1" class="edge">
<title>0&#45;&gt;1</title>
<path fill="none" stroke="black" d="M460.15,-600.33C460.15,-591.49 460.15,-582.29 460.15,-574.05"/>
<polygon fill="black" stroke="black" points="463.65,-573.88 460.15,-563.88 456.65,-573.88 463.65,-573.88"/>
</g>
<!-- 2 -->
<g id="node3" class="node">
<title>2</title>
<path fill="none" stroke="#bcd7fb" d="M249.55,-446.5C249.55,-446.5 670.75,-446.5 670.75,-446.5 676.75,-446.5 682.75,-452.5 682.75,-458.5 682.75,-458.5 682.75,-478.5 682.75,-478.5 682.75,-484.5 676.75,-490.5 670.75,-490.5 670.75,-490.5 249.55,-490.5 249.55,-490.5 243.55,-490.5 237.55,-484.5 237.55,-478.5 237.55,-478.5 237.55,-458.5 237.55,-458.5 237.55,-452.5 243.55,-446.5 249.55,-446.5"/>
<text text-anchor="middle" x="460.15" y="-475.3" font-family="Times,serif" font-size="14.00">9aa9f728c533ea7d7671e227e987b45bf49ae31986ad9c7923e987b518a3c1cf</text>
<polyline fill="none" stroke="#bcd7fb" points="237.55,-468.5 682.75,-468.5 "/>
<text text-anchor="middle" x="460.15" y="-453.3" font-family="Times,serif" font-size="14.00"> </text>
</g>
<!-- 1&#45;&gt;2 -->
<g id="edge2" class="edge">
<title>1&#45;&gt;2</title>
<path fill="none" stroke="black" d="M460.15,-527.48C460.15,-519.65 460.15,-510.11 460.15,-501.04"/>
<polygon fill="black" stroke="black" points="463.65,-500.74 460.15,-490.74 456.65,-500.74 463.65,-500.74"/>
</g>
<!-- 3 -->
<g id="node4" class="node">
<title>3</title>
<path fill="none" stroke="black" d="M445.15,-373.5C445.15,-373.5 475.15,-373.5 475.15,-373.5 481.15,-373.5 487.15,-379.5 487.15,-385.5 487.15,-385.5 487.15,-397.5 487.15,-397.5 487.15,-403.5 481.15,-409.5 475.15,-409.5 475.15,-409.5 445.15,-409.5 445.15,-409.5 439.15,-409.5 433.15,-403.5 433.15,-397.5 433.15,-397.5 433.15,-385.5 433.15,-385.5 433.15,-379.5 439.15,-373.5 445.15,-373.5"/>
<text text-anchor="middle" x="460.15" y="-387.3" font-family="Times,serif" font-size="14.00">6</text>
</g>
<!-- 2&#45;&gt;3 -->
<g id="edge3" class="edge">
<title>2&#45;&gt;3</title>
<path fill="none" stroke="black" d="M460.15,-446.21C460.15,-437.96 460.15,-428.41 460.15,-419.67"/>
<polygon fill="black" stroke="black" points="463.65,-419.56 460.15,-409.56 456.65,-419.56 463.65,-419.56"/>
</g>
<!-- 4 -->
<g id="node5" class="node">
<title>4</title>
<path fill="none" stroke="black" d="M279,-300.5C279,-300.5 641.3,-300.5 641.3,-300.5 647.3,-300.5 653.3,-306.5 653.3,-312.5 653.3,-312.5 653.3,-324.5 653.3,-324.5 653.3,-330.5 647.3,-336.5 641.3,-336.5 641.3,-336.5 279,-336.5 279,-336.5 273,-336.5 267,-330.5 267,-324.5 267,-324.5 267,-312.5 267,-312.5 267,-306.5 273,-300.5 279,-300.5"/>
<text text-anchor="middle" x="278.5" y="-314.3" font-family="Times,serif" font-size="14.00">0</text>
<polyline fill="none" stroke="black" points="290,-300.5 290,-336.5 "/>
<text text-anchor="middle" x="301.5" y="-314.3" font-family="Times,serif" font-size="14.00">1</text>
<polyline fill="none" stroke="black" points="313,-300.5 313,-336.5 "/>
<text text-anchor="middle" x="324.5" y="-314.3" font-family="Times,serif" font-size="14.00">2</text>
<polyline fill="none" stroke="black" points="336,-300.5 336,-336.5 "/>
<text text-anchor="middle" x="347.5" y="-314.3" font-family="Times,serif" font-size="14.00">3</text>
<polyline fill="none" stroke="black" points="359,-300.5 359,-336.5 "/>
<text text-anchor="middle" x="370.5" y="-314.3" font-family="Times,serif" font-size="14.00">4</text>
<polyline fill="none" stroke="black" points="382,-300.5 382,-336.5 "/>
<text text-anchor="middle" x="393.5" y="-314.3" font-family="Times,serif" font-size="14.00">5</text>
<polyline fill="none" stroke="black" points="405,-300.5 405,-336.5 "/>
<text text-anchor="middle" x="416.5" y="-314.3" font-family="Times,serif" font-size="14.00">6</text>
<polyline fill="none" stroke="black" points="428,-300.5 428,-336.5 "/>
<text text-anchor="middle" x="439.5" y="-314.3" font-family="Times,serif" font-size="14.00">7</text>
<polyline fill="none" stroke="black" points="451,-300.5 451,-336.5 "/>
<text text-anchor="middle" x="462.5" y="-314.3" font-family="Times,serif" font-size="14.00">8</text>
<polyline fill="none" stroke="black" points="474,-300.5 474,-336.5 "/>
<text text-anchor="middle" x="485.5" y="-314.3" font-family="Times,serif" font-size="14.00">9</text>
<polyline fill="none" stroke="black" points="497,-300.5 497,-336.5 "/>
<text text-anchor="middle" x="508.11" y="-314.3" font-family="Times,serif" font-size="14.00">a</text>
<polyline fill="none" stroke="black" points="519.21,-300.5 519.21,-336.5 "/>
<text text-anchor="middle" x="530.71" y="-314.3" font-family="Times,serif" font-size="14.00">b</text>
<polyline fill="none" stroke="black" points="542.21,-300.5 542.21,-336.5 "/>
<text text-anchor="middle" x="553.32" y="-314.3" font-family="Times,serif" font-size="14.00">c</text>
<polyline fill="none" stroke="black" points="564.43,-300.5 564.43,-336.5 "/>
<text text-anchor="middle" x="575.93" y="-314.3" font-family="Times,serif" font-size="14.00">d</text>
<polyline fill="none" stroke="black" points="587.43,-300.5 587.43,-336.5 "/>
<text text-anchor="middle" x="598.53" y="-314.3" font-family="Times,serif" font-size="14.00">e</text>
<polyline fill="none" stroke="black" points="609.64,-300.5 609.64,-336.5 "/>
<text text-anchor="middle" x="619.97" y="-314.3" font-family="Times,serif" font-size="14.00">f</text>
<polyline fill="none" stroke="black" points="630.3,-300.5 630.3,-336.5 "/>
<text text-anchor="middle" x="641.8" y="-314.3" font-family="Times,serif" font-size="14.00">g</text>
</g>
<!-- 3&#45;&gt;4 -->
<g id="edge4" class="edge">
<title>3&#45;&gt;4</title>
<path fill="none" stroke="black" d="M460.15,-373.31C460.15,-365.29 460.15,-355.55 460.15,-346.57"/>
<polygon fill="black" stroke="black" points="463.65,-346.53 460.15,-336.53 456.65,-346.53 463.65,-346.53"/>
</g>
<!-- 5 -->
<g id="node6" class="node">
<title>5</title>
<path fill="none" stroke="black" d="M204.84,-227.5C204.84,-227.5 355.47,-227.5 355.47,-227.5 361.47,-227.5 367.47,-233.5 367.47,-239.5 367.47,-239.5 367.47,-251.5 367.47,-251.5 367.47,-257.5 361.47,-263.5 355.47,-263.5 355.47,-263.5 204.84,-263.5 204.84,-263.5 198.84,-263.5 192.84,-257.5 192.84,-251.5 192.84,-251.5 192.84,-239.5 192.84,-239.5 192.84,-233.5 198.84,-227.5 204.84,-227.5"/>
<text text-anchor="middle" x="280.15" y="-241.3" font-family="Times,serif" font-size="14.00">616c636f6e792f77696e642f</text>
</g>
<!-- 4&#45;&gt;5 -->
<g id="edge5" class="edge">
<title>4:2&#45;&gt;5</title>
<path fill="none" stroke="black" d="M324.15,-300C324.15,-289.06 318.6,-279.15 311.44,-270.9"/>
<polygon fill="black" stroke="black" points="313.71,-268.22 304.21,-263.54 308.72,-273.13 313.71,-268.22"/>
</g>
<!-- 11 -->
<g id="node12" class="node">
<title>11</title>
<path fill="none" stroke="black" d="M507.22,-227.5C507.22,-227.5 643.08,-227.5 643.08,-227.5 649.08,-227.5 655.08,-233.5 655.08,-239.5 655.08,-239.5 655.08,-251.5 655.08,-251.5 655.08,-257.5 649.08,-263.5 643.08,-263.5 643.08,-263.5 507.22,-263.5 507.22,-263.5 501.22,-263.5 495.22,-257.5 495.22,-251.5 495.22,-251.5 495.22,-239.5 495.22,-239.5 495.22,-233.5 501.22,-227.5 507.22,-227.5"/>
<text text-anchor="middle" x="575.15" y="-241.3" font-family="Times,serif" font-size="14.00">6976696e675f726f6f6d2f</text>
</g>
<!-- 4&#45;&gt;11 -->
<g id="edge11" class="edge">
<title>4:c&#45;&gt;11</title>
<path fill="none" stroke="black" d="M553.15,-300C553.15,-290.76 555.99,-281.25 559.63,-272.86"/>
<polygon fill="black" stroke="black" points="562.91,-274.13 564.15,-263.61 556.62,-271.06 562.91,-274.13"/>
</g>
<!-- 6 -->
<g id="node7" class="node">
<title>6</title>
<path fill="none" stroke="black" d="M12,-154.5C12,-154.5 374.3,-154.5 374.3,-154.5 380.3,-154.5 386.3,-160.5 386.3,-166.5 386.3,-166.5 386.3,-178.5 386.3,-178.5 386.3,-184.5 380.3,-190.5 374.3,-190.5 374.3,-190.5 12,-190.5 12,-190.5 6,-190.5 0,-184.5 0,-178.5 0,-178.5 0,-166.5 0,-166.5 0,-160.5 6,-154.5 12,-154.5"/>
<text text-anchor="middle" x="11.5" y="-168.3" font-family="Times,serif" font-size="14.00">0</text>
<polyline fill="none" stroke="black" points="23,-154.5 23,-190.5 "/>
<text text-anchor="middle" x="34.5" y="-168.3" font-family="Times,serif" font-size="14.00">1</text>
<polyline fill="none" stroke="black" points="46,-154.5 46,-190.5 "/>
<text text-anchor="middle" x="57.5" y="-168.3" font-family="Times,serif" font-size="14.00">2</text>
<polyline fill="none" stroke="black" points="69,-154.5 69,-190.5 "/>
<text text-anchor="middle" x="80.5" y="-168.3" font-family="Times,serif" font-size="14.00">3</text>
<polyline fill="none" stroke="black" points="92,-154.5 92,-190.5 "/>
<text text-anchor="middle" x="103.5" y="-168.3" font-family="Times,serif" font-size="14.00">4</text>
<polyline fill="none" stroke="black" points="115,-154.5 115,-190.5 "/>
<text text-anchor="middle" x="126.5" y="-168.3" font-family="Times,serif" font-size="14.00">5</text>
<polyline fill="none" stroke="black" points="138,-154.5 138,-190.5 "/>
<text text-anchor="middle" x="149.5" y="-168.3" font-family="Times,serif" font-size="14.00">6</text>
<polyline fill="none" stroke="black" points="161,-154.5 161,-190.5 "/>
<text text-anchor="middle" x="172.5" y="-168.3" font-family="Times,serif" font-size="14.00">7</text>
<polyline fill="none" stroke="black" points="184,-154.5 184,-190.5 "/>
<text text-anchor="middle" x="195.5" y="-168.3" font-family="Times,serif" font-size="14.00">8</text>
<polyline fill="none" stroke="black" points="207,-154.5 207,-190.5 "/>
<text text-anchor="middle" x="218.5" y="-168.3" font-family="Times,serif" font-size="14.00">9</text>
<polyline fill="none" stroke="black" points="230,-154.5 230,-190.5 "/>
<text text-anchor="middle" x="241.11" y="-168.3" font-family="Times,serif" font-size="14.00">a</text>
<polyline fill="none" stroke="black" points="252.21,-154.5 252.21,-190.5 "/>
<text text-anchor="middle" x="263.71" y="-168.3" font-family="Times,serif" font-size="14.00">b</text>
<polyline fill="none" stroke="black" points="275.21,-154.5 275.21,-190.5 "/>
<text text-anchor="middle" x="286.32" y="-168.3" font-family="Times,serif" font-size="14.00">c</text>
<polyline fill="none" stroke="black" points="297.43,-154.5 297.43,-190.5 "/>
<text text-anchor="middle" x="308.93" y="-168.3" font-family="Times,serif" font-size="14.00">d</text>
<polyline fill="none" stroke="black" points="320.43,-154.5 320.43,-190.5 "/>
<text text-anchor="middle" x="331.53" y="-168.3" font-family="Times,serif" font-size="14.00">e</text>
<polyline fill="none" stroke="black" points="342.64,-154.5 342.64,-190.5 "/>
<text text-anchor="middle" x="352.97" y="-168.3" font-family="Times,serif" font-size="14.00">f</text>
<polyline fill="none" stroke="black" points="363.3,-154.5 363.3,-190.5 "/>
<text text-anchor="middle" x="374.8" y="-168.3" font-family="Times,serif" font-size="14.00">g</text>
</g>
<!-- 5&#45;&gt;6 -->
<g id="edge6" class="edge">
<title>5&#45;&gt;6</title>
<path fill="none" stroke="black" d="M259.09,-227.31C247.98,-218.24 234.17,-206.98 222.07,-197.1"/>
<polygon fill="black" stroke="black" points="223.98,-194.14 214.02,-190.53 219.55,-199.56 223.98,-194.14"/>
</g>
<!-- 7 -->
<g id="node8" class="node">
<title>7</title>
<path fill="none" stroke="black" d="M31.71,-81.5C31.71,-81.5 146.59,-81.5 146.59,-81.5 152.59,-81.5 158.59,-87.5 158.59,-93.5 158.59,-93.5 158.59,-105.5 158.59,-105.5 158.59,-111.5 152.59,-117.5 146.59,-117.5 146.59,-117.5 31.71,-117.5 31.71,-117.5 25.71,-117.5 19.71,-111.5 19.71,-105.5 19.71,-105.5 19.71,-93.5 19.71,-93.5 19.71,-87.5 25.71,-81.5 31.71,-81.5"/>
<text text-anchor="middle" x="89.15" y="-95.3" font-family="Times,serif" font-size="14.00">46972656374696f6eg</text>
</g>
<!-- 6&#45;&gt;7 -->
<g id="edge7" class="edge">
<title>6:6&#45;&gt;7</title>
<path fill="none" stroke="black" d="M149.15,-154C149.15,-141.9 142.27,-131.86 133.16,-123.87"/>
<polygon fill="black" stroke="black" points="135.15,-120.98 125.09,-117.64 130.87,-126.52 135.15,-120.98"/>
</g>
<!-- 9 -->
<g id="node10" class="node">
<title>9</title>
<path fill="none" stroke="black" d="M195.15,-81.5C195.15,-81.5 257.15,-81.5 257.15,-81.5 263.15,-81.5 269.15,-87.5 269.15,-93.5 269.15,-93.5 269.15,-105.5 269.15,-105.5 269.15,-111.5 263.15,-117.5 257.15,-117.5 257.15,-117.5 195.15,-117.5 195.15,-117.5 189.15,-117.5 183.15,-111.5 183.15,-105.5 183.15,-105.5 183.15,-93.5 183.15,-93.5 183.15,-87.5 189.15,-81.5 195.15,-81.5"/>
<text text-anchor="middle" x="226.15" y="-95.3" font-family="Times,serif" font-size="14.00">370656564g</text>
</g>
<!-- 6&#45;&gt;9 -->
<g id="edge9" class="edge">
<title>6:7&#45;&gt;9</title>
<path fill="none" stroke="black" d="M172.15,-154C172.15,-142.36 178.56,-132.4 186.96,-124.33"/>
<polygon fill="black" stroke="black" points="189.37,-126.87 194.74,-117.73 184.85,-121.53 189.37,-126.87"/>
</g>
<!-- 8 -->
<g id="node9" class="node">
<title>8</title>
<path fill="none" stroke="#227bf4" d="M16.22,-0.5C16.22,-0.5 138.08,-0.5 138.08,-0.5 144.08,-0.5 150.08,-6.5 150.08,-12.5 150.08,-12.5 150.08,-32.5 150.08,-32.5 150.08,-38.5 144.08,-44.5 138.08,-44.5 138.08,-44.5 16.22,-44.5 16.22,-44.5 10.22,-44.5 4.22,-38.5 4.22,-32.5 4.22,-32.5 4.22,-12.5 4.22,-12.5 4.22,-6.5 10.22,-0.5 16.22,-0.5"/>
<text text-anchor="middle" x="77.15" y="-29.3" font-family="Times,serif" font-size="14.00">balcony/wind/direction</text>
<polyline fill="none" stroke="#227bf4" points="4.22,-22.5 150.08,-22.5 "/>
<text text-anchor="middle" x="77.15" y="-7.3" font-family="Times,serif" font-size="14.00">N</text>
</g>
<!-- 7&#45;&gt;8 -->
<g id="edge8" class="edge">
<title>7&#45;&gt;8</title>
<path fill="none" stroke="black" d="M86.43,-81.48C85.16,-73.57 83.62,-63.9 82.15,-54.74"/>
<polygon fill="black" stroke="black" points="85.59,-54.07 80.55,-44.74 78.67,-55.17 85.59,-54.07"/>
</g>
<!-- 10 -->
<g id="node11" class="node">
<title>10</title>
<path fill="none" stroke="#227bf4" d="M180.17,-0.5C180.17,-0.5 284.14,-0.5 284.14,-0.5 290.14,-0.5 296.14,-6.5 296.14,-12.5 296.14,-12.5 296.14,-32.5 296.14,-32.5 296.14,-38.5 290.14,-44.5 284.14,-44.5 284.14,-44.5 180.17,-44.5 180.17,-44.5 174.17,-44.5 168.17,-38.5 168.17,-32.5 168.17,-32.5 168.17,-12.5 168.17,-12.5 168.17,-6.5 174.17,-0.5 180.17,-0.5"/>
<text text-anchor="middle" x="232.15" y="-29.3" font-family="Times,serif" font-size="14.00">balcony/wind/speed</text>
<polyline fill="none" stroke="#227bf4" points="168.17,-22.5 296.14,-22.5 "/>
<text text-anchor="middle" x="232.15" y="-7.3" font-family="Times,serif" font-size="14.00">11km/h</text>
</g>
<!-- 9&#45;&gt;10 -->
<g id="edge10" class="edge">
<title>9&#45;&gt;10</title>
<path fill="none" stroke="black" d="M227.51,-81.48C228.15,-73.57 228.92,-63.9 229.65,-54.74"/>
<polygon fill="black" stroke="black" points="233.14,-54.99 230.45,-44.74 226.17,-54.43 233.14,-54.99"/>
</g>
<!-- 12 -->
<g id="node13" class="node">
<title>12</title>
<path fill="none" stroke="black" d="M416,-154.5C416,-154.5 778.3,-154.5 778.3,-154.5 784.3,-154.5 790.3,-160.5 790.3,-166.5 790.3,-166.5 790.3,-178.5 790.3,-178.5 790.3,-184.5 784.3,-190.5 778.3,-190.5 778.3,-190.5 416,-190.5 416,-190.5 410,-190.5 404,-184.5 404,-178.5 404,-178.5 404,-166.5 404,-166.5 404,-160.5 410,-154.5 416,-154.5"/>
<text text-anchor="middle" x="415.5" y="-168.3" font-family="Times,serif" font-size="14.00">0</text>
<polyline fill="none" stroke="black" points="427,-154.5 427,-190.5 "/>
<text text-anchor="middle" x="438.5" y="-168.3" font-family="Times,serif" font-size="14.00">1</text>
<polyline fill="none" stroke="black" points="450,-154.5 450,-190.5 "/>
<text text-anchor="middle" x="461.5" y="-168.3" font-family="Times,serif" font-size="14.00">2</text>
<polyline fill="none" stroke="black" points="473,-154.5 473,-190.5 "/>
<text text-anchor="middle" x="484.5" y="-168.3" font-family="Times,serif" font-size="14.00">3</text>
<polyline fill="none" stroke="black" points="496,-154.5 496,-190.5 "/>
<text text-anchor="middle" x="507.5" y="-168.3" font-family="Times,serif" font-size="14.00">4</text>
<polyline fill="none" stroke="black" points="519,-154.5 519,-190.5 "/>
<text text-anchor="middle" x="530.5" y="-168.3" font-family="Times,serif" font-size="14.00">5</text>
<polyline fill="none" stroke="black" points="542,-154.5 542,-190.5 "/>
<text text-anchor="middle" x="553.5" y="-168.3" font-family="Times,serif" font-size="14.00">6</text>
<polyline fill="none" stroke="black" points="565,-154.5 565,-190.5 "/>
<text text-anchor="middle" x="576.5" y="-168.3" font-family="Times,serif" font-size="14.00">7</text>
<polyline fill="none" stroke="black" points="588,-154.5 588,-190.5 "/>
<text text-anchor="middle" x="599.5" y="-168.3" font-family="Times,serif" font-size="14.00">8</text>
<polyline fill="none" stroke="black" points="611,-154.5 611,-190.5 "/>
<text text-anchor="middle" x="622.5" y="-168.3" font-family="Times,serif" font-size="14.00">9</text>
<polyline fill="none" stroke="black" points="634,-154.5 634,-190.5 "/>
<text text-anchor="middle" x="645.11" y="-168.3" font-family="Times,serif" font-size="14.00">a</text>
<polyline fill="none" stroke="black" points="656.21,-154.5 656.21,-190.5 "/>
<text text-anchor="middle" x="667.71" y="-168.3" font-family="Times,serif" font-size="14.00">b</text>
<polyline fill="none" stroke="black" points="679.21,-154.5 679.21,-190.5 "/>
<text text-anchor="middle" x="690.32" y="-168.3" font-family="Times,serif" font-size="14.00">c</text>
<polyline fill="none" stroke="black" points="701.43,-154.5 701.43,-190.5 "/>
<text text-anchor="middle" x="712.93" y="-168.3" font-family="Times,serif" font-size="14.00">d</text>
<polyline fill="none" stroke="black" points="724.43,-154.5 724.43,-190.5 "/>
<text text-anchor="middle" x="735.53" y="-168.3" font-family="Times,serif" font-size="14.00">e</text>
<polyline fill="none" stroke="black" points="746.64,-154.5 746.64,-190.5 "/>
<text text-anchor="middle" x="756.97" y="-168.3" font-family="Times,serif" font-size="14.00">f</text>
<polyline fill="none" stroke="black" points="767.3,-154.5 767.3,-190.5 "/>
<text text-anchor="middle" x="778.8" y="-168.3" font-family="Times,serif" font-size="14.00">g</text>
</g>
<!-- 11&#45;&gt;12 -->
<g id="edge12" class="edge">
<title>11&#45;&gt;12</title>
<path fill="none" stroke="black" d="M580.48,-227.31C582.99,-219.2 586.05,-209.34 588.85,-200.28"/>
<polygon fill="black" stroke="black" points="592.26,-201.12 591.88,-190.53 585.57,-199.04 592.26,-201.12"/>
</g>
<!-- 13 -->
<g id="node14" class="node">
<title>13</title>
<path fill="none" stroke="black" d="M478.32,-81.5C478.32,-81.5 509.98,-81.5 509.98,-81.5 515.98,-81.5 521.98,-87.5 521.98,-93.5 521.98,-93.5 521.98,-105.5 521.98,-105.5 521.98,-111.5 515.98,-117.5 509.98,-117.5 509.98,-117.5 478.32,-117.5 478.32,-117.5 472.32,-117.5 466.32,-111.5 466.32,-105.5 466.32,-105.5 466.32,-93.5 466.32,-93.5 466.32,-87.5 472.32,-81.5 478.32,-81.5"/>
<text text-anchor="middle" x="494.15" y="-95.3" font-family="Times,serif" font-size="14.00">36f32g</text>
</g>
<!-- 12&#45;&gt;13 -->
<g id="edge13" class="edge">
<title>12:4&#45;&gt;13</title>
<path fill="none" stroke="black" d="M507.15,-154C507.15,-145.17 505.46,-135.74 503.29,-127.29"/>
<polygon fill="black" stroke="black" points="506.63,-126.23 500.5,-117.59 499.9,-128.17 506.63,-126.23"/>
</g>
<!-- 15 -->
<g id="node16" class="node">
<title>15</title>
<path fill="none" stroke="black" d="M565.15,-81.5C565.15,-81.5 613.15,-81.5 613.15,-81.5 619.15,-81.5 625.15,-87.5 625.15,-93.5 625.15,-93.5 625.15,-105.5 625.15,-105.5 625.15,-111.5 619.15,-117.5 613.15,-117.5 613.15,-117.5 565.15,-117.5 565.15,-117.5 559.15,-117.5 553.15,-111.5 553.15,-105.5 553.15,-105.5 553.15,-93.5 553.15,-93.5 553.15,-87.5 559.15,-81.5 565.15,-81.5"/>
<text text-anchor="middle" x="589.15" y="-95.3" font-family="Times,serif" font-size="14.00">4656d70g</text>
</g>
<!-- 12&#45;&gt;15 -->
<g id="edge15" class="edge">
<title>12:7&#45;&gt;15</title>
<path fill="none" stroke="black" d="M576.15,-154C576.15,-145.17 577.85,-135.74 580.01,-127.29"/>
<polygon fill="black" stroke="black" points="583.4,-128.17 582.8,-117.59 576.67,-126.23 583.4,-128.17"/>
</g>
<!-- 14 -->
<g id="node15" class="node">
<title>14</title>
<path fill="none" stroke="#227bf4" d="M436.93,-0.5C436.93,-0.5 525.38,-0.5 525.38,-0.5 531.38,-0.5 537.38,-6.5 537.38,-12.5 537.38,-12.5 537.38,-32.5 537.38,-32.5 537.38,-38.5 531.38,-44.5 525.38,-44.5 525.38,-44.5 436.93,-44.5 436.93,-44.5 430.93,-44.5 424.93,-38.5 424.93,-32.5 424.93,-32.5 424.93,-12.5 424.93,-12.5 424.93,-6.5 430.93,-0.5 436.93,-0.5"/>
<text text-anchor="middle" x="481.15" y="-29.3" font-family="Times,serif" font-size="14.00">living_room/Co2</text>
<polyline fill="none" stroke="#227bf4" points="424.93,-22.5 537.38,-22.5 "/>
<text text-anchor="middle" x="481.15" y="-7.3" font-family="Times,serif" font-size="14.00">564ppm</text>
</g>
<!-- 13&#45;&gt;14 -->
<g id="edge14" class="edge">
<title>13&#45;&gt;14</title>
<path fill="none" stroke="black" d="M491.2,-81.48C489.83,-73.57 488.15,-63.9 486.57,-54.74"/>
<polygon fill="black" stroke="black" points="489.99,-54 484.83,-44.74 483.09,-55.2 489.99,-54"/>
</g>
<!-- 16 -->
<g id="node17" class="node">
<title>16</title>
<path fill="none" stroke="#227bf4" d="M567.6,-0.5C567.6,-0.5 660.7,-0.5 660.7,-0.5 666.7,-0.5 672.7,-6.5 672.7,-12.5 672.7,-12.5 672.7,-32.5 672.7,-32.5 672.7,-38.5 666.7,-44.5 660.7,-44.5 660.7,-44.5 567.6,-44.5 567.6,-44.5 561.6,-44.5 555.6,-38.5 555.6,-32.5 555.6,-32.5 555.6,-12.5 555.6,-12.5 555.6,-6.5 561.6,-0.5 567.6,-0.5"/>
<text text-anchor="middle" x="614.15" y="-29.3" font-family="Times,serif" font-size="14.00">living_room/temp</text>
<polyline fill="none" stroke="#227bf4" points="555.6,-22.5 672.7,-22.5 "/>
<text text-anchor="middle" x="614.15" y="-7.3" font-family="Times,serif" font-size="14.00">24.8℃</text>
</g>
<!-- 15&#45;&gt;16 -->
<g id="edge16" class="edge">
<title>15&#45;&gt;16</title>
<path fill="none" stroke="black" d="M594.82,-81.48C597.49,-73.48 600.75,-63.69 603.84,-54.45"/>
<polygon fill="black" stroke="black" points="607.23,-55.34 607.07,-44.74 600.59,-53.12 607.23,-55.34"/>
</g>
</g>
</svg>
