<?xml version="1.0" encoding="UTF-8" standalone="no"?>
<!DOCTYPE svg PUBLIC "-//W3C//DTD SVG 1.1//EN"
 "http://www.w3.org/Graphics/SVG/1.1/DTD/svg11.dtd">
<!-- Generated by graphviz version 2.43.0 (0)
 -->
<!-- Title: structs Pages: 1 -->
<svg width="1015pt" height="725pt"
 viewBox="0.00 0.00 1015.00 725.00" xmlns="http://www.w3.org/2000/svg" xmlns:xlink="http://www.w3.org/1999/xlink">
<g id="graph0" class="graph" transform="scale(1 1) rotate(0) translate(4 721)">
<title>structs</title>
<polygon fill="white" stroke="transparent" points="-4,4 -4,-721 1011,-721 1011,4 -4,4"/>
<!-- 0 -->
<g id="node1" class="node">
<title>0</title>
<path fill="none" stroke="black" d="M12,-600.5C12,-600.5 995,-600.5 995,-600.5 1001,-600.5 1007,-606.5 1007,-612.5 1007,-612.5 1007,-704.5 1007,-704.5 1007,-710.5 1001,-716.5 995,-716.5 995,-716.5 12,-716.5 12,-716.5 6,-716.5 0,-710.5 0,-704.5 0,-704.5 0,-612.5 0,-612.5 0,-606.5 6,-600.5 12,-600.5"/>
<text text-anchor="start" x="33.11" y="-699.3" font-family="Times,serif" font-size="14.00">Root Hash:</text>
<text text-anchor="start" x="100.5" y="-699.3" font-family="Times,serif" font-size="14.00">4711b3b18e379dbdfabd6440428d20cae5784a518605acec48e126e33383f24e</text>
<text text-anchor="start" x="19.58" y="-681.3" font-family="Times,serif" font-size="14.00">Anchor Type:</text>
<text text-anchor="start" x="100.5" y="-681.3" font-family="Times,serif" font-size="14.00">HEDERA</text>
<text text-anchor="start" x="51.79" y="-663.3" font-family="Times,serif" font-size="14.00">Txn ID:</text>
<text text-anchor="start" x="100.5" y="-663.3" font-family="Times,serif" font-size="14.00">08c24089fca5ec8399dd03bb1d4fe7be53b6e2d1bc7c944e25fd849c99c66132a0ca1d285226f44537f559e5be62902c</text>
<text text-anchor="start" x="42.45" y="-645.3" font-family="Times,serif" font-size="14.00">Txn URI:</text>
<text text-anchor="start" x="100.33" y="-645.3" font-family="Times,serif" font-size="14.00">https://explorer.kabuto.sh/testnet/transaction/08c24089fca5ec8399dd03bb1d4fe7be53b6e2d1bc7c944e25fd849c99c66132a0ca1d285226f44537f559e5be62902c</text>
<text text-anchor="start" x="26.86" y="-627.3" font-family="Times,serif" font-size="14.00">Block Time:</text>
<text text-anchor="start" x="100.5" y="-627.3" font-family="Times,serif" font-size="14.00">Fri Jul &#160;3 14:37:49 AEST 2020</text>
<text text-anchor="start" x="10.15" y="-609.3" font-family="Times,serif" font-size="14.00">Block Number:</text>
<text text-anchor="start" x="100.5" y="-609.3" font-family="Times,serif" font-size="14.00">0</text>
</g>
<!-- 1 -->
<g id="node2" class="node">
<title>1</title>
<path fill="none" stroke="black" d="M289.4,-527.5C289.4,-527.5 717.6,-527.5 717.6,-527.5 723.6,-527.5 729.6,-533.5 729.6,-539.5 729.6,-539.5 729.6,-551.5 729.6,-551.5 729.6,-557.5 723.6,-563.5 717.6,-563.5 717.6,-563.5 289.4,-563.5 289.4,-563.5 283.4,-563.5 277.4,-557.5 277.4,-551.5 277.4,-551.5 277.4,-539.5 277.4,-539.5 277.4,-533.5 283.4,-527.5 289.4,-527.5"/>
<text text-anchor="middle" x="503.5" y="-541.3" font-family="Times,serif" font-size="14.00">9aa9f728c533ea7d7671e227e987b45bf49ae31986ad9c7923e987b518a3c1cfg</text>
</g>
<!-- 0&#45;&gt;1 -->
<g id="edge1" class="edge">
<title>0&#45;&gt;1</title>
<path fill="none" stroke="black" d="M503.5,-600.37C503.5,-591.17 503.5,-582.03 503.5,-573.96"/>
<polygon fill="black" stroke="black" points="507,-573.71 503.5,-563.71 500,-573.71 507,-573.71"/>
</g>
<!-- 2 -->
<g id="node3" class="node">
<title>2</title>
<path fill="none" stroke="#bcd7fb" d="M292.9,-446.5C292.9,-446.5 714.1,-446.5 714.1,-446.5 720.1,-446.5 726.1,-452.5 726.1,-458.5 726.1,-458.5 726.1,-478.5 726.1,-478.5 726.1,-484.5 720.1,-490.5 714.1,-490.5 714.1,-490.5 292.9,-490.5 292.9,-490.5 286.9,-490.5 280.9,-484.5 280.9,-478.5 280.9,-478.5 280.9,-458.5 280.9,-458.5 280.9,-452.5 286.9,-446.5 292.9,-446.5"/>
<text text-anchor="middle" x="503.5" y="-475.3" font-family="Times,serif" font-size="14.00">9aa9f728c533ea7d7671e227e987b45bf49ae31986ad9c7923e987b518a3c1cf</text>
<polyline fill="none" stroke="#bcd7fb" points="280.9,-468.5 726.1,-468.5 "/>
<text text-anchor="middle" x="503.5" y="-453.3" font-family="Times,serif" font-size="14.00"> </text>
</g>
<!-- 1&#45;&gt;2 -->
<g id="edge2" class="edge">
<title>1&#45;&gt;2</title>
<path fill="none" stroke="black" d="M503.5,-527.48C503.5,-519.65 503.5,-510.11 503.5,-501.04"/>
<polygon fill="black" stroke="black" points="507,-500.74 503.5,-490.74 500,-500.74 507,-500.74"/>
</g>
<!-- 3 -->
<g id="node4" class="node">
<title>3</title>
<path fill="none" stroke="black" d="M488.5,-373.5C488.5,-373.5 518.5,-373.5 518.5,-373.5 524.5,-373.5 530.5,-379.5 530.5,-385.5 530.5,-385.5 530.5,-397.5 530.5,-397.5 530.5,-403.5 524.5,-409.5 518.5,-409.5 518.5,-409.5 488.5,-409.5 488.5,-409.5 482.5,-409.5 476.5,-403.5 476.5,-397.5 476.5,-397.5 476.5,-385.5 476.5,-385.5 476.5,-379.5 482.5,-373.5 488.5,-373.5"/>
<text text-anchor="middle" x="503.5" y="-387.3" font-family="Times,serif" font-size="14.00">6</text>
</g>
<!-- 2&#45;&gt;3 -->
<g id="edge3" class="edge">
<title>2&#45;&gt;3</title>
<path fill="none" stroke="black" d="M503.5,-446.21C503.5,-437.96 503.5,-428.41 503.5,-419.67"/>
<polygon fill="black" stroke="black" points="507,-419.56 503.5,-409.56 500,-419.56 507,-419.56"/>
</g>
<!-- 4 -->
<g id="node5" class="node">
<title>4</title>
<path fill="none" stroke="black" d="M322.35,-300.5C322.35,-300.5 684.65,-300.5 684.65,-300.5 690.65,-300.5 696.65,-306.5 696.65,-312.5 696.65,-312.5 696.65,-324.5 696.65,-324.5 696.65,-330.5 690.65,-336.5 684.65,-336.5 684.65,-336.5 322.35,-336.5 322.35,-336.5 316.35,-336.5 310.35,-330.5 310.35,-324.5 310.35,-324.5 310.35,-312.5 310.35,-312.5 310.35,-306.5 316.35,-300.5 322.35,-300.5"/>
<text text-anchor="middle" x="321.85" y="-314.3" font-family="Times,serif" font-size="14.00">0</text>
<polyline fill="none" stroke="black" points="333.35,-300.5 333.35,-336.5 "/>
<text text-anchor="middle" x="344.85" y="-314.3" font-family="Times,serif" font-size="14.00">1</text>
<polyline fill="none" stroke="black" points="356.35,-300.5 356.35,-336.5 "/>
<text text-anchor="middle" x="367.85" y="-314.3" font-family="Times,serif" font-size="14.00">2</text>
<polyline fill="none" stroke="black" points="379.35,-300.5 379.35,-336.5 "/>
<text text-anchor="middle" x="390.85" y="-314.3" font-family="Times,serif" font-size="14.00">3</text>
<polyline fill="none" stroke="black" points="402.35,-300.5 402.35,-336.5 "/>
<text text-anchor="middle" x="413.85" y="-314.3" font-family="Times,serif" font-size="14.00">4</text>
<polyline fill="none" stroke="black" points="425.35,-300.5 425.35,-336.5 "/>
<text text-anchor="middle" x="436.85" y="-314.3" font-family="Times,serif" font-size="14.00">5</text>
<polyline fill="none" stroke="black" points="448.35,-300.5 448.35,-336.5 "/>
<text text-anchor="middle" x="459.85" y="-314.3" font-family="Times,serif" font-size="14.00">6</text>
<polyline fill="none" stroke="black" points="471.35,-300.5 471.35,-336.5 "/>
<text text-anchor="middle" x="482.85" y="-314.3" font-family="Times,serif" font-size="14.00">7</text>
<polyline fill="none" stroke="black" points="494.35,-300.5 494.35,-336.5 "/>
<text text-anchor="middle" x="505.85" y="-314.3" font-family="Times,serif" font-size="14.00">8</text>
<polyline fill="none" stroke="black" points="517.35,-300.5 517.35,-336.5 "/>
<text text-anchor="middle" x="528.85" y="-314.3" font-family="Times,serif" font-size="14.00">9</text>
<polyline fill="none" stroke="black" points="540.35,-300.5 540.35,-336.5 "/>
<text text-anchor="middle" x="551.46" y="-314.3" font-family="Times,serif" font-size="14.00">a</text>
<polyline fill="none" stroke="black" points="562.56,-300.5 562.56,-336.5 "/>
<text text-anchor="middle" x="574.06" y="-314.3" font-family="Times,serif" font-size="14.00">b</text>
<polyline fill="none" stroke="black" points="585.56,-300.5 585.56,-336.5 "/>
<text text-anchor="middle" x="596.67" y="-314.3" font-family="Times,serif" font-size="14.00">c</text>
<polyline fill="none" stroke="black" points="607.78,-300.5 607.78,-336.5 "/>
<text text-anchor="middle" x="619.28" y="-314.3" font-family="Times,serif" font-size="14.00">d</text>
<polyline fill="none" stroke="black" points="630.78,-300.5 630.78,-336.5 "/>
<text text-anchor="middle" x="641.88" y="-314.3" font-family="Times,serif" font-size="14.00">e</text>
<polyline fill="none" stroke="black" points="652.99,-300.5 652.99,-336.5 "/>
<text text-anchor="middle" x="663.32" y="-314.3" font-family="Times,serif" font-size="14.00">f</text>
<polyline fill="none" stroke="black" points="673.65,-300.5 673.65,-336.5 "/>
<text text-anchor="middle" x="685.15" y="-314.3" font-family="Times,serif" font-size="14.00">g</text>
</g>
<!-- 3&#45;&gt;4 -->
<g id="edge4" class="edge">
<title>3&#45;&gt;4</title>
<path fill="none" stroke="black" d="M503.5,-373.31C503.5,-365.29 503.5,-355.55 503.5,-346.57"/>
<polygon fill="black" stroke="black" points="507,-346.53 503.5,-336.53 500,-346.53 507,-346.53"/>
</g>
<!-- 5 -->
<g id="node6" class="node">
<title>5</title>
<path fill="none" stroke="black" d="M248.19,-227.5C248.19,-227.5 398.81,-227.5 398.81,-227.5 404.81,-227.5 410.81,-233.5 410.81,-239.5 410.81,-239.5 410.81,-251.5 410.81,-251.5 410.81,-257.5 404.81,-263.5 398.81,-263.5 398.81,-263.5 248.19,-263.5 248.19,-263.5 242.19,-263.5 236.19,-257.5 236.19,-251.5 236.19,-251.5 236.19,-239.5 236.19,-239.5 236.19,-233.5 242.19,-227.5 248.19,-227.5"/>
<text text-anchor="middle" x="323.5" y="-241.3" font-family="Times,serif" font-size="14.00">616c636f6e792f77696e642f</text>
</g>
<!-- 4&#45;&gt;5 -->
<g id="edge5" class="edge">
<title>4:2&#45;&gt;5</title>
<path fill="none" stroke="black" d="M367.5,-300C367.5,-289.06 361.95,-279.15 354.79,-270.9"/>
<polygon fill="black" stroke="black" points="357.06,-268.22 347.56,-263.54 352.06,-273.13 357.06,-268.22"/>
</g>
<!-- 11 -->
<g id="node12" class="node">
<title>11</title>
<path fill="none" stroke="black" d="M550.57,-227.5C550.57,-227.5 686.43,-227.5 686.43,-227.5 692.43,-227.5 698.43,-233.5 698.43,-239.5 698.43,-239.5 698.43,-251.5 698.43,-251.5 698.43,-257.5 692.43,-263.5 686.43,-263.5 686.43,-263.5 550.57,-263.5 550.57,-263.5 544.57,-263.5 538.57,-257.5 538.57,-251.5 538.57,-251.5 538.57,-239.5 538.57,-239.5 538.57,-233.5 544.57,-227.5 550.57,-227.5"/>
<text text-anchor="middle" x="618.5" y="-241.3" font-family="Times,serif" font-size="14.00">6976696e675f726f6f6d2f</text>
</g>
<!-- 4&#45;&gt;11 -->
<g id="edge11" class="edge">
<title>4:c&#45;&gt;11</title>
<path fill="none" stroke="black" d="M596.5,-300C596.5,-290.76 599.34,-281.25 602.98,-272.86"/>
<polygon fill="black" stroke="black" points="606.26,-274.13 607.5,-263.61 599.97,-271.06 606.26,-274.13"/>
</g>
<!-- 6 -->
<g id="node7" class="node">
<title>6</title>
<path fill="none" stroke="black" d="M55.35,-154.5C55.35,-154.5 417.65,-154.5 417.65,-154.5 423.65,-154.5 429.65,-160.5 429.65,-166.5 429.65,-166.5 429.65,-178.5 429.65,-178.5 429.65,-184.5 423.65,-190.5 417.65,-190.5 417.65,-190.5 55.35,-190.5 55.35,-190.5 49.35,-190.5 43.35,-184.5 43.35,-178.5 43.35,-178.5 43.35,-166.5 43.35,-166.5 43.35,-160.5 49.35,-154.5 55.35,-154.5"/>
<text text-anchor="middle" x="54.85" y="-168.3" font-family="Times,serif" font-size="14.00">0</text>
<polyline fill="none" stroke="black" points="66.35,-154.5 66.35,-190.5 "/>
<text text-anchor="middle" x="77.85" y="-168.3" font-family="Times,serif" font-size="14.00">1</text>
<polyline fill="none" stroke="black" points="89.35,-154.5 89.35,-190.5 "/>
<text text-anchor="middle" x="100.85" y="-168.3" font-family="Times,serif" font-size="14.00">2</text>
<polyline fill="none" stroke="black" points="112.35,-154.5 112.35,-190.5 "/>
<text text-anchor="middle" x="123.85" y="-168.3" font-family="Times,serif" font-size="14.00">3</text>
<polyline fill="none" stroke="black" points="135.35,-154.5 135.35,-190.5 "/>
<text text-anchor="middle" x="146.85" y="-168.3" font-family="Times,serif" font-size="14.00">4</text>
<polyline fill="none" stroke="black" points="158.35,-154.5 158.35,-190.5 "/>
<text text-anchor="middle" x="169.85" y="-168.3" font-family="Times,serif" font-size="14.00">5</text>
<polyline fill="none" stroke="black" points="181.35,-154.5 181.35,-190.5 "/>
<text text-anchor="middle" x="192.85" y="-168.3" font-family="Times,serif" font-size="14.00">6</text>
<polyline fill="none" stroke="black" points="204.35,-154.5 204.35,-190.5 "/>
<text text-anchor="middle" x="215.85" y="-168.3" font-family="Times,serif" font-size="14.00">7</text>
<polyline fill="none" stroke="black" points="227.35,-154.5 227.35,-190.5 "/>
<text text-anchor="middle" x="238.85" y="-168.3" font-family="Times,serif" font-size="14.00">8</text>
<polyline fill="none" stroke="black" points="250.35,-154.5 250.35,-190.5 "/>
<text text-anchor="middle" x="261.85" y="-168.3" font-family="Times,serif" font-size="14.00">9</text>
<polyline fill="none" stroke="black" points="273.35,-154.5 273.35,-190.5 "/>
<text text-anchor="middle" x="284.46" y="-168.3" font-family="Times,serif" font-size="14.00">a</text>
<polyline fill="none" stroke="black" points="295.56,-154.5 295.56,-190.5 "/>
<text text-anchor="middle" x="307.06" y="-168.3" font-family="Times,serif" font-size="14.00">b</text>
<polyline fill="none" stroke="black" points="318.56,-154.5 318.56,-190.5 "/>
<text text-anchor="middle" x="329.67" y="-168.3" font-family="Times,serif" font-size="14.00">c</text>
<polyline fill="none" stroke="black" points="340.78,-154.5 340.78,-190.5 "/>
<text text-anchor="middle" x="352.28" y="-168.3" font-family="Times,serif" font-size="14.00">d</text>
<polyline fill="none" stroke="black" points="363.78,-154.5 363.78,-190.5 "/>
<text text-anchor="middle" x="374.88" y="-168.3" font-family="Times,serif" font-size="14.00">e</text>
<polyline fill="none" stroke="black" points="385.99,-154.5 385.99,-190.5 "/>
<text text-anchor="middle" x="396.32" y="-168.3" font-family="Times,serif" font-size="14.00">f</text>
<polyline fill="none" stroke="black" points="406.65,-154.5 406.65,-190.5 "/>
<text text-anchor="middle" x="418.15" y="-168.3" font-family="Times,serif" font-size="14.00">g</text>
</g>
<!-- 5&#45;&gt;6 -->
<g id="edge6" class="edge">
<title>5&#45;&gt;6</title>
<path fill="none" stroke="black" d="M302.44,-227.31C291.33,-218.24 277.52,-206.98 265.42,-197.1"/>
<polygon fill="black" stroke="black" points="267.33,-194.14 257.37,-190.53 262.9,-199.56 267.33,-194.14"/>
</g>
<!-- 7 -->
<g id="node8" class="node">
<title>7</title>
<path fill="none" stroke="black" d="M75.06,-81.5C75.06,-81.5 189.94,-81.5 189.94,-81.5 195.94,-81.5 201.94,-87.5 201.94,-93.5 201.94,-93.5 201.94,-105.5 201.94,-105.5 201.94,-111.5 195.94,-117.5 189.94,-117.5 189.94,-117.5 75.06,-117.5 75.06,-117.5 69.06,-117.5 63.06,-111.5 63.06,-105.5 63.06,-105.5 63.06,-93.5 63.06,-93.5 63.06,-87.5 69.06,-81.5 75.06,-81.5"/>
<text text-anchor="middle" x="132.5" y="-95.3" font-family="Times,serif" font-size="14.00">46972656374696f6eg</text>
</g>
<!-- 6&#45;&gt;7 -->
<g id="edge7" class="edge">
<title>6:6&#45;&gt;7</title>
<path fill="none" stroke="black" d="M192.5,-154C192.5,-141.9 185.62,-131.86 176.51,-123.87"/>
<polygon fill="black" stroke="black" points="178.5,-120.98 168.44,-117.64 174.22,-126.52 178.5,-120.98"/>
</g>
<!-- 9 -->
<g id="node10" class="node">
<title>9</title>
<path fill="none" stroke="black" d="M238.5,-81.5C238.5,-81.5 300.5,-81.5 300.5,-81.5 306.5,-81.5 312.5,-87.5 312.5,-93.5 312.5,-93.5 312.5,-105.5 312.5,-105.5 312.5,-111.5 306.5,-117.5 300.5,-117.5 300.5,-117.5 238.5,-117.5 238.5,-117.5 232.5,-117.5 226.5,-111.5 226.5,-105.5 226.5,-105.5 226.5,-93.5 226.5,-93.5 226.5,-87.5 232.5,-81.5 238.5,-81.5"/>
<text text-anchor="middle" x="269.5" y="-95.3" font-family="Times,serif" font-size="14.00">370656564g</text>
</g>
<!-- 6&#45;&gt;9 -->
<g id="edge9" class="edge">
<title>6:7&#45;&gt;9</title>
<path fill="none" stroke="black" d="M215.5,-154C215.5,-142.36 221.91,-132.4 230.3,-124.33"/>
<polygon fill="black" stroke="black" points="232.72,-126.87 238.09,-117.73 228.2,-121.53 232.72,-126.87"/>
</g>
<!-- 8 -->
<g id="node9" class="node">
<title>8</title>
<path fill="none" stroke="#227bf4" d="M59.57,-0.5C59.57,-0.5 181.43,-0.5 181.43,-0.5 187.43,-0.5 193.43,-6.5 193.43,-12.5 193.43,-12.5 193.43,-32.5 193.43,-32.5 193.43,-38.5 187.43,-44.5 181.43,-44.5 181.43,-44.5 59.57,-44.5 59.57,-44.5 53.57,-44.5 47.57,-38.5 47.57,-32.5 47.57,-32.5 47.57,-12.5 47.57,-12.5 47.57,-6.5 53.57,-0.5 59.57,-0.5"/>
<text text-anchor="middle" x="120.5" y="-29.3" font-family="Times,serif" font-size="14.00">balcony/wind/direction</text>
<polyline fill="none" stroke="#227bf4" points="47.57,-22.5 193.43,-22.5 "/>
<text text-anchor="middle" x="120.5" y="-7.3" font-family="Times,serif" font-size="14.00">N</text>
</g>
<!-- 7&#45;&gt;8 -->
<g id="edge8" class="edge">
<title>7&#45;&gt;8</title>
<path fill="none" stroke="black" d="M129.78,-81.48C128.51,-73.57 126.96,-63.9 125.5,-54.74"/>
<polygon fill="black" stroke="black" points="128.94,-54.07 123.9,-44.74 122.02,-55.17 128.94,-54.07"/>
</g>
<!-- 10 -->
<g id="node11" class="node">
<title>10</title>
<path fill="none" stroke="#227bf4" d="M223.51,-0.5C223.51,-0.5 327.49,-0.5 327.49,-0.5 333.49,-0.5 339.49,-6.5 339.49,-12.5 339.49,-12.5 339.49,-32.5 339.49,-32.5 339.49,-38.5 333.49,-44.5 327.49,-44.5 327.49,-44.5 223.51,-44.5 223.51,-44.5 217.51,-44.5 211.51,-38.5 211.51,-32.5 211.51,-32.5 211.51,-12.5 211.51,-12.5 211.51,-6.5 217.51,-0.5 223.51,-0.5"/>
<text text-anchor="middle" x="275.5" y="-29.3" font-family="Times,serif" font-size="14.00">balcony/wind/speed</text>
<polyline fill="none" stroke="#227bf4" points="211.51,-22.5 339.49,-22.5 "/>
<text text-anchor="middle" x="275.5" y="-7.3" font-family="Times,serif" font-size="14.00">11km/h</text>
</g>
<!-- 9&#45;&gt;10 -->
<g id="edge10" class="edge">
<title>9&#45;&gt;10</title>
<path fill="none" stroke="black" d="M270.86,-81.48C271.49,-73.57 272.27,-63.9 273,-54.74"/>
<polygon fill="black" stroke="black" points="276.49,-54.99 273.8,-44.74 269.51,-54.43 276.49,-54.99"/>
</g>
<!-- 12 -->
<g id="node13" class="node">
<title>12</title>
<path fill="none" stroke="black" d="M459.35,-154.5C459.35,-154.5 821.65,-154.5 821.65,-154.5 827.65,-154.5 833.65,-160.5 833.65,-166.5 833.65,-166.5 833.65,-178.5 833.65,-178.5 833.65,-184.5 827.65,-190.5 821.65,-190.5 821.65,-190.5 459.35,-190.5 459.35,-190.5 453.35,-190.5 447.35,-184.5 447.35,-178.5 447.35,-178.5 447.35,-166.5 447.35,-166.5 447.35,-160.5 453.35,-154.5 459.35,-154.5"/>
<text text-anchor="middle" x="458.85" y="-168.3" font-family="Times,serif" font-size="14.00">0</text>
<polyline fill="none" stroke="black" points="470.35,-154.5 470.35,-190.5 "/>
<text text-anchor="middle" x="481.85" y="-168.3" font-family="Times,serif" font-size="14.00">1</text>
<polyline fill="none" stroke="black" points="493.35,-154.5 493.35,-190.5 "/>
<text text-anchor="middle" x="504.85" y="-168.3" font-family="Times,serif" font-size="14.00">2</text>
<polyline fill="none" stroke="black" points="516.35,-154.5 516.35,-190.5 "/>
<text text-anchor="middle" x="527.85" y="-168.3" font-family="Times,serif" font-size="14.00">3</text>
<polyline fill="none" stroke="black" points="539.35,-154.5 539.35,-190.5 "/>
<text text-anchor="middle" x="550.85" y="-168.3" font-family="Times,serif" font-size="14.00">4</text>
<polyline fill="none" stroke="black" points="562.35,-154.5 562.35,-190.5 "/>
<text text-anchor="middle" x="573.85" y="-168.3" font-family="Times,serif" font-size="14.00">5</text>
<polyline fill="none" stroke="black" points="585.35,-154.5 585.35,-190.5 "/>
<text text-anchor="middle" x="596.85" y="-168.3" font-family="Times,serif" font-size="14.00">6</text>
<polyline fill="none" stroke="black" points="608.35,-154.5 608.35,-190.5 "/>
<text text-anchor="middle" x="619.85" y="-168.3" font-family="Times,serif" font-size="14.00">7</text>
<polyline fill="none" stroke="black" points="631.35,-154.5 631.35,-190.5 "/>
<text text-anchor="middle" x="642.85" y="-168.3" font-family="Times,serif" font-size="14.00">8</text>
<polyline fill="none" stroke="black" points="654.35,-154.5 654.35,-190.5 "/>
<text text-anchor="middle" x="665.85" y="-168.3" font-family="Times,serif" font-size="14.00">9</text>
<polyline fill="none" stroke="black" points="677.35,-154.5 677.35,-190.5 "/>
<text text-anchor="middle" x="688.46" y="-168.3" font-family="Times,serif" font-size="14.00">a</text>
<polyline fill="none" stroke="black" points="699.56,-154.5 699.56,-190.5 "/>
<text text-anchor="middle" x="711.06" y="-168.3" font-family="Times,serif" font-size="14.00">b</text>
<polyline fill="none" stroke="black" points="722.56,-154.5 722.56,-190.5 "/>
<text text-anchor="middle" x="733.67" y="-168.3" font-family="Times,serif" font-size="14.00">c</text>
<polyline fill="none" stroke="black" points="744.78,-154.5 744.78,-190.5 "/>
<text text-anchor="middle" x="756.28" y="-168.3" font-family="Times,serif" font-size="14.00">d</text>
<polyline fill="none" stroke="black" points="767.78,-154.5 767.78,-190.5 "/>
<text text-anchor="middle" x="778.88" y="-168.3" font-family="Times,serif" font-size="14.00">e</text>
<polyline fill="none" stroke="black" points="789.99,-154.5 789.99,-190.5 "/>
<text text-anchor="middle" x="800.32" y="-168.3" font-family="Times,serif" font-size="14.00">f</text>
<polyline fill="none" stroke="black" points="810.65,-154.5 810.65,-190.5 "/>
<text text-anchor="middle" x="822.15" y="-168.3" font-family="Times,serif" font-size="14.00">g</text>
</g>
<!-- 11&#45;&gt;12 -->
<g id="edge12" class="edge">
<title>11&#45;&gt;12</title>
<path fill="none" stroke="black" d="M623.83,-227.31C626.34,-219.2 629.4,-209.34 632.2,-200.28"/>
<polygon fill="black" stroke="black" points="635.61,-201.12 635.22,-190.53 628.92,-199.04 635.61,-201.12"/>
</g>
<!-- 13 -->
<g id="node14" class="node">
<title>13</title>
<path fill="none" stroke="black" d="M521.67,-81.5C521.67,-81.5 553.33,-81.5 553.33,-81.5 559.33,-81.5 565.33,-87.5 565.33,-93.5 565.33,-93.5 565.33,-105.5 565.33,-105.5 565.33,-111.5 559.33,-117.5 553.33,-117.5 553.33,-117.5 521.67,-117.5 521.67,-117.5 515.67,-117.5 509.67,-111.5 509.67,-105.5 509.67,-105.5 509.67,-93.5 509.67,-93.5 509.67,-87.5 515.67,-81.5 521.67,-81.5"/>
<text text-anchor="middle" x="537.5" y="-95.3" font-family="Times,serif" font-size="14.00">36f32g</text>
</g>
<!-- 12&#45;&gt;13 -->
<g id="edge13" class="edge">
<title>12:4&#45;&gt;13</title>
<path fill="none" stroke="black" d="M550.5,-154C550.5,-145.17 548.81,-135.74 546.64,-127.29"/>
<polygon fill="black" stroke="black" points="549.98,-126.23 543.85,-117.59 543.25,-128.17 549.98,-126.23"/>
</g>
<!-- 15 -->
<g id="node16" class="node">
<title>15</title>
<path fill="none" stroke="black" d="M608.5,-81.5C608.5,-81.5 656.5,-81.5 656.5,-81.5 662.5,-81.5 668.5,-87.5 668.5,-93.5 668.5,-93.5 668.5,-105.5 668.5,-105.5 668.5,-111.5 662.5,-117.5 656.5,-117.5 656.5,-117.5 608.5,-117.5 608.5,-117.5 602.5,-117.5 596.5,-111.5 596.5,-105.5 596.5,-105.5 596.5,-93.5 596.5,-93.5 596.5,-87.5 602.5,-81.5 608.5,-81.5"/>
<text text-anchor="middle" x="632.5" y="-95.3" font-family="Times,serif" font-size="14.00">4656d70g</text>
</g>
<!-- 12&#45;&gt;15 -->
<g id="edge15" class="edge">
<title>12:7&#45;&gt;15</title>
<path fill="none" stroke="black" d="M619.5,-154C619.5,-145.17 621.19,-135.74 623.36,-127.29"/>
<polygon fill="black" stroke="black" points="626.75,-128.17 626.15,-117.59 620.02,-126.23 626.75,-128.17"/>
</g>
<!-- 14 -->
<g id="node15" class="node">
<title>14</title>
<path fill="none" stroke="#227bf4" d="M480.28,-0.5C480.28,-0.5 568.72,-0.5 568.72,-0.5 574.72,-0.5 580.72,-6.5 580.72,-12.5 580.72,-12.5 580.72,-32.5 580.72,-32.5 580.72,-38.5 574.72,-44.5 568.72,-44.5 568.72,-44.5 480.28,-44.5 480.28,-44.5 474.28,-44.5 468.28,-38.5 468.28,-32.5 468.28,-32.5 468.28,-12.5 468.28,-12.5 468.28,-6.5 474.28,-0.5 480.28,-0.5"/>
<text text-anchor="middle" x="524.5" y="-29.3" font-family="Times,serif" font-size="14.00">living_room/Co2</text>
<polyline fill="none" stroke="#227bf4" points="468.28,-22.5 580.72,-22.5 "/>
<text text-anchor="middle" x="524.5" y="-7.3" font-family="Times,serif" font-size="14.00">564ppm</text>
</g>
<!-- 13&#45;&gt;14 -->
<g id="edge14" class="edge">
<title>13&#45;&gt;14</title>
<path fill="none" stroke="black" d="M534.55,-81.48C533.18,-73.57 531.5,-63.9 529.92,-54.74"/>
<polygon fill="black" stroke="black" points="533.34,-54 528.18,-44.74 526.44,-55.2 533.34,-54"/>
</g>
<!-- 16 -->
<g id="node17" class="node">
<title>16</title>
<path fill="none" stroke="#227bf4" d="M610.95,-0.5C610.95,-0.5 704.05,-0.5 704.05,-0.5 710.05,-0.5 716.05,-6.5 716.05,-12.5 716.05,-12.5 716.05,-32.5 716.05,-32.5 716.05,-38.5 710.05,-44.5 704.05,-44.5 704.05,-44.5 610.95,-44.5 610.95,-44.5 604.95,-44.5 598.95,-38.5 598.95,-32.5 598.95,-32.5 598.95,-12.5 598.95,-12.5 598.95,-6.5 604.95,-0.5 610.95,-0.5"/>
<text text-anchor="middle" x="657.5" y="-29.3" font-family="Times,serif" font-size="14.00">living_room/temp</text>
<polyline fill="none" stroke="#227bf4" points="598.95,-22.5 716.05,-22.5 "/>
<text text-anchor="middle" x="657.5" y="-7.3" font-family="Times,serif" font-size="14.00">24.8℃</text>
</g>
<!-- 15&#45;&gt;16 -->
<g id="edge16" class="edge">
<title>15&#45;&gt;16</title>
<path fill="none" stroke="black" d="M638.17,-81.48C640.84,-73.48 644.1,-63.69 647.18,-54.45"/>
<polygon fill="black" stroke="black" points="650.58,-55.34 650.42,-44.74 643.94,-53.12 650.58,-55.34"/>
</g>
</g>
</svg>
